<?xml version="1.0" encoding="UTF-8" standalone="no"?>
<svg
   xmlns:dc="http://purl.org/dc/elements/1.1/"
   xmlns:cc="http://creativecommons.org/ns#"
   xmlns:rdf="http://www.w3.org/1999/02/22-rdf-syntax-ns#"
   xmlns:svg="http://www.w3.org/2000/svg"
   xmlns="http://www.w3.org/2000/svg"
   xmlns:sodipodi="http://sodipodi.sourceforge.net/DTD/sodipodi-0.dtd"
   xmlns:inkscape="http://www.inkscape.org/namespaces/inkscape"
   version="1.1"
   width="3.4056032cm"
   height="0.94592959cm"
   viewBox="0 0 34056032 9459296.3"
   id="svg1871"
   sodipodi:docname="gtt-zeroHP-art.svg"
   inkscape:version="1.0.2 (e86c870879, 2021-01-15)">
  <metadata
     id="metadata1877">
    <rdf:RDF>
      <cc:Work
         rdf:about="">
        <dc:format>image/svg+xml</dc:format>
        <dc:type
           rdf:resource="http://purl.org/dc/dcmitype/StillImage" />
        <dc:title>SVG Picture created as gtt-zeroHP-Edge_Cuts.svg date 2023/07/12 14:59:43 </dc:title>
      </cc:Work>
    </rdf:RDF>
  </metadata>
  <defs
     id="defs1875" />
  <sodipodi:namedview
     pagecolor="#ffffff"
     bordercolor="#666666"
     borderopacity="1"
     objecttolerance="10"
     gridtolerance="10"
     guidetolerance="10"
     inkscape:pageopacity="0"
     inkscape:pageshadow="2"
     inkscape:window-width="1920"
     inkscape:window-height="1022"
     id="namedview1873"
     showgrid="false"
     inkscape:zoom="1.5679482"
     inkscape:cx="-212.56029"
     inkscape:cy="38.569952"
     inkscape:window-x="1080"
     inkscape:window-y="24"
     inkscape:window-maximized="1"
     inkscape:current-layer="svg1871"
     fit-margin-top="0"
     fit-margin-left="0"
     fit-margin-right="0"
     fit-margin-bottom="0" />
  <title
     id="title971">SVG Picture created as gtt-zeroHP-Edge_Cuts.svg date 2023/07/12 14:59:43 </title>
  <desc
     id="desc973">Picture generated by PCBNEW </desc>
  <path
     style="fill:#040000;stroke:#000017;stroke-width:132291.66603917;stroke-linecap:round;stroke-linejoin:bevel;stroke-miterlimit:4;stroke-dasharray:none"
     id="path1921"
     d="m 33542760,9393887.5 c 112890,-223235 199950,-458066 284990,-692923 99840,-291238 165790,-592331 210210,-896564 33780,-222552 17760,-444133 -27730,-663192 -40540,-211876 -112640,-414422 -201550,-610298 -82870,-184203 -209130,-338842 -349830,-481341 -132750,-129519 -283380,-236884 -439670,-335650 -141700,-85479 -287450,-164579 -434920,-239668 -90980,-43669 -182820,-85553 -276180,-123859 -85860,-37016 -173500,-69440 -262350,-98478 -48290,-13838 -95570,-31192 -144110,-44101 -19900,-4233 -39040,-8149 -55300,-20188 -266300,-26979 -150200,165352 -117810,243544 12410,29935 24440,60013 36680,90022 76910,203025 149220,407712 229680,609383 53050,123150 44220,213013 228580,529 14650,-16880 -17810,-41016 -27210,-61299 -11800,-25479 -24260,-50625 -36390,-75940 -88270,-171908 -162610,-350293 -233760,-529797 -37880,-98930 -78070,-196945 -119760,-294322 5210,19341 -14160,-37658 -12090,-27776 10770,51258 27400,9948 -17620,102923 -4190,8652 -18580,9313 -22410,18124 -1860,4524 9860,-265 14810,-529 164280,-6350 328520,15425 491900,30379 192760,16775 385290,35626 577390,58666 52430,6615 104790,13811 157060,21537 9370,1323 18790,2381 28060,4260 1850,264 6510,2910 4820,2381 -6930,-2381 -13710,-5212 -20560,-7832 -14840,-22463 -42610,-40520 -44550,-67373 -3830,-53202 70960,-121862 9420,-77081 -14180,10319 -28160,20928 -41650,32128 -18200,15108 -35610,31192 -53410,46787 -161000,149526 -314660,306503 -460840,470487 -84510,99115 -170780,196691 -255990,295198 -24610,27834 -49610,55325 -75210,82254 -2670,2804 -11270,10610 -8070,8387 7200,-4948 13420,-11139 20140,-16695 48410,17542 96810,35076 145220,52612 1860,1852 4630,7726 5530,5345 10800,-28533 10480,-60129 17020,-89924 7350,-33454 30840,-131813 37420,-159594 35980,-150540 72780,-300876 106500,-451945 19500,-137745 -33520,-153805 -202300,-105704 -11850,3387 -102580,156271 -115330,176268 -10590,16457 -20770,33165 -31750,49363 -50200,74121 -53310,16378 94610,18759 12390,199 22780,29327 31140,20214 12860,-14023 1850,-37991 2650,-56988 -530,-80185 50430,-270904 -27660,-329930 -28340,-21432 -66960,-23786 -100430,-35679 -21750,7964 -44750,13123 -65280,23891 -70030,36688 -105610,120606 -124890,191255 -8180,93543 25930,181903 121780,216937 72540,26508 124120,10662 197610,1323 35060,-8864 70340,-16907 105180,-26617 60820,-16934 126750,-39201 186810,-59410 22490,-7567 144610,-47768 92350,-27511 -32360,-36960 -64710,-73917 -97080,-110877 -790,-4074 1330,-13705 -2380,-12250 -8380,3096 -79850,70448 -100340,84156 67190,-37367 27320,-25426 147510,69154 4680,3678 1060,19421 6300,16775 4870,-2381 57120,-74298 69270,-87011 -57830,59462 13470,-3916 -166250,-66752 -8810,-3069 -8670,16537 -12830,24871 -9260,18574 -17780,37518 -27460,55870 -23840,45182 -46520,81851 -72680,125690 -30420,33337 -77570,137120 -112870,156263 15430,-61548 121850,6244 124780,5424 3730,-1059 530,-7779 1050,-11615 1060,-8890 2650,-17754 4130,-26594 2780,-15584 5930,-31080 8890,-46622 26280,-71448 31470,-156525 72970,-221935 23660,-18203 47080,-35875 68540,-57637 49860,-73721 38530,-151831 -790,-226515 -77910,-102555 -89430,-51713 -190320,98364 -7700,11457 65100,82084 66040,83045 76720,73906 171050,111003 274240,129029 79880,10372 157190,-5635 228330,-41775 86520,-55382 77060,-64386 -101310,-191701 -17860,-12727 -41220,15002 -61810,22516 -108110,39534 -41940,15928 -154160,55208 -60280,11986 -202010,84828 -262890,60171 -2110,-3175 -5340,-5529 2650,-4392 2730,265 5270,3652 7810,2646 3330,-1323 -3550,-33282 -6010,-53461 -790,-11907 -1590,-23787 -2120,-35687 -530,-12753 -1590,-52285 -1320,-66408 120,-4895 6240,-15055 1320,-14605 -211290,19367 -204600,-33536 -201920,57965 1590,131050 -13460,261670 -26060,391938 -11980,83939 -3760,164830 23210,244644 18970,48535 38620,96880 61160,143883 7470,17198 17600,32755 28340,47998 88630,118097 255640,-7223 167020,-125333 v 0 c 2380,4445 -5690,-8546 -7280,-13362 -19210,-39547 -35280,-80547 -51850,-121250 -18280,-51276 -21300,-102058 -12750,-156472 13650,-141301 29940,-283049 26610,-425220 -9020,-113183 10380,-83923 -214740,-59759 -10400,1059 -1590,20849 -1860,31311 -1050,42968 2120,86048 5350,128842 16690,113381 46810,199302 168100,232724 128960,16087 245400,-27752 366230,-69058 109250,-38265 53520,-18283 156800,-56150 18550,-6800 56660,-530 55650,-20373 -7380,-144603 -111270,-168580 -61420,-191360 -29410,17092 -63260,23521 -97150,20532 -61590,-9102 -116810,-28906 -162820,-72920 -15510,-12514 -8440,-5344 -20160,-20346 -1330,-1588 -2120,-6033 -3760,-4763 -71050,58434 -124680,190021 -180550,93438 12330,20108 13500,2884 27960,-11933 8990,-3995 -15610,12039 -23520,17939 -19050,14261 -34500,27948 -49960,46559 -7940,9551 -14310,20293 -21480,30427 -47440,89717 -70370,189891 -96110,287456 -12280,75253 -33900,200674 33290,260628 21360,19050 46940,37330 75280,41296 28120,3943 55340,-12753 83010,-19155 71830,-57915 115850,-142055 167610,-216901 41280,-69344 85340,-138924 115850,-213968 9840,-24236 38260,-51784 25080,-74385 -32920,-56430 -87160,-101687 -145250,-131596 -17270,-8890 -32710,21034 -49080,31538 -30190,33259 -149710,173334 -131080,215633 68790,156242 92980,128564 180510,98698 37500,-26636 195860,-151487 186530,-194159 -12170,-55695 -58980,-97581 -88480,-146373 -19050,264 -38250,-1588 -57120,1058 -28720,3916 -94870,28411 -118600,36409 -84900,28610 -170040,56949 -257290,77685 -18470,3677 -36990,7064 -55390,11086 -7030,1587 -15630,529 -20930,5503 -5580,5159 4130,16563 -200,22807 -2110,3069 -10390,-9710 -7220,-8546 -13570,-29771 62460,-61418 -5160,-49318 -84940,-46908 -56710,-10901 -78990,-76116 -1850,-5318 3890,10743 4050,16352 530,17356 -800,34721 -2120,52038 -1850,25241 -4680,50408 -7010,75615 -1850,28319 -3780,56640 -5690,84961 -190,50498 -12170,170561 44500,203893 136770,80468 189750,-35753 243730,-118819 134870,-211527 -57730,90847 71310,-112745 7730,-12197 35650,-28704 23440,-36417 -231980,-146568 -113660,47443 -154580,-99319 -1850,-6509 -1590,13441 -2380,20161 -33510,150180 -70140,299617 -105890,449273 -21240,89657 -55230,193001 -59710,285422 -1050,21352 -13750,49752 2120,64130 41840,37978 101170,50350 151750,75525 48470,-33959 86370,-77721 124910,-122703 84540,-97737 170160,-194535 253980,-292899 140480,-157774 288330,-308594 442890,-452649 23550,-20849 45800,-41810 70900,-60584 11750,-8785 29530,-11192 36950,-23813 18980,-32247 46620,-64606 46780,-102013 130,-30223 -30660,-52091 -45990,-78136 -81270,-41701 -171850,-39939 -260930,-54282 -194050,-23257 -388520,-42347 -583220,-59283 -179380,-16404 -360050,-41066 -540360,-29162 -115930,20082 -182200,73517 -125240,196249 40960,95636 80410,191910 117600,289081 72980,184018 149230,366887 239610,543179 11330,23575 22920,47030 33990,70723 7880,16854 4280,51189 22880,50909 267600,-4048 208740,-29297 160340,-152723 -80680,-202134 -152900,-407403 -230250,-610806 -111880,-274368 16110,38176 -62090,-149739 -4420,-10636 -1850,-35261 -12810,-32115 -62040,17595 -117470,53623 -173790,85058 -7380,4101 30470,12277 20080,15426 36630,23971 76370,40901 119560,49006 44490,10715 87120,28929 131450,40407 84000,27374 166780,58161 247920,93173 88130,36110 174750,75729 260700,116763 141780,72081 281820,148204 418130,230121 143010,90218 281070,187892 402810,306041 123830,124548 235300,259358 308140,420926 83020,181695 149620,369856 187210,566605 41320,194948 55480,392055 25480,590299 -42030,290311 -105150,577543 -199910,855538 -82650,228367 -167100,456779 -276960,673780 -63800,133160 124510,223380 188310,90220 z"
     inkscape:export-xdpi="300"
     inkscape:export-ydpi="300" />
  <path
     style="fill:#040000;stroke:#000017;stroke-width:79374.9996235;stroke-linecap:round;stroke-linejoin:bevel;stroke-miterlimit:4;stroke-dasharray:none"
     id="path1925"
     d="m 4239700,6781052.5 c -134870,27149 -271810,38727 -408950,46220 -180280,10848 -346210,1852 -518590,-53612 -151970,-52885 -266940,-163881 -381190,-272304 -161690,-160986 -324680,-320765 -482510,-485548 -171420,-174125 -295250,-381063 -396150,-601699 -131200,-300207 -200310,-621036 -267450,-940126 -69970,-337251 -115920,-678690 -145300,-1021680 -18210,-366639 -36680,-733137 -61700,-1099395 -17520,-254624 -38110,-509103 -46120,-764248 -5670,-105188 10320,-213252 -24130,-314519 -41120,-74506 -99460,-88672 -174110,-50212 -32200,16589 -65300,72133 -86460,99433 -107950,137210 -216940,273624 -324250,411374 -72210,86590 -135060,179943 -197440,273629 -69290,105273 -116930,122190 128410,189947 19710,5451 25380,-32094 38080,-48143 137470,-182946 236120,-389178 329800,-596773 72700,-158205 124500,-325607 197300,-483674 23050,-40979 3390,5768 -51410,24156 -35910,12039 -63200,-23680 -17700,26247 159440,180880 311340,368162 461610,556670 89660,118914 190520,231307 264090,361500 18810,36695 19770,78026 24110,118158 12060,70228 -14560,103841 52370,-42355 6690,-3175 16010,-3334 20080,-9525 2650,-3995 -9550,529 -14340,794 -12730,529 -25430,1323 -38160,1852 -76180,2937 -152240,2778 -228460,2381 -172460,-529 -344130,-16774 -515720,-32125 -112140,-6165 -222060,-27409 -331440,-51502 -67670,-15848 -135630,-30363 -203940,-43198 -80030,-13944 -56450,-23389 39960,162092 2640,5027 10110,-5213 14920,-8255 14980,-9472 29600,-19527 44400,-29284 158610,-106895 283600,-252572 406560,-397016 37270,-44841 73280,-90799 106880,-138472 6400,-9102 14760,-17251 18650,-27670 2750,-7382 -7650,20690 -15110,18177 -60980,-20717 -116420,-55065 -174640,-82598 -60940,177125 -115580,356330 -168370,536030 61580,-20955 -36710,52586 -17440,56248 68350,12964 140600,42413 207430,23071 29270,-8466 13860,-59346 20610,-89058 31860,-140126 29790,-132580 60950,-277323 24550,-110080 45120,-221028 68950,-331261 4100,-18997 7990,-38087 13230,-56814 790,-2831 7620,-7885 4730,-7435 -59270,9181 -117800,22728 -176690,34092 45970,173540 92910,347657 160890,514074 60230,80759 54960,104953 215020,12621 23150,-13361 30660,-185021 34270,-220440 19100,51170 -112480,72493 -107230,86161 6720,17489 83970,112538 99770,134427 48400,53361 77400,104368 185580,46704 38880,-20716 45810,-76131 59560,-117988 14900,-45379 7750,-176797 6960,-229788 -1320,-88352 9760,-84423 -179620,15372 -12170,6430 8660,26141 12760,39296 23010,74012 20400,66961 41510,143497 15720,58140 30030,116639 45230,174914 4550,17383 6620,35631 13730,52138 2120,4816 -2110,-10266 -3330,-15398 45170,-34042 94980,-62680 135510,-102124 5110,-4974 -8570,-11430 -13360,-16748 -15290,-16960 -31180,-33380 -46810,-50025 -68660,-73097 -137870,-145542 -208000,-217221 -63000,-60663 -63900,-62902 -126250,-118046 -64220,-56803 -146720,-131448 -240720,-42331 -34670,32872 -26690,91750 -40040,137626 15060,133379 57380,260874 100960,387051 8150,23627 51420,150339 71900,178975 16640,23257 41350,39497 62030,59245 56790,-37531 128660,-58806 170380,-112598 23150,-29853 4950,-75457 4770,-113237 -530,-118478 -17100,-237709 -32080,-355055 -2380,-14896 6560,-50734 -7250,-44683 -60070,26300 -118670,64678 -158120,117065 -12570,16695 18790,37314 27630,56235 43900,93953 83960,189598 123930,285263 34550,79822 65340,161700 103950,239747 8440,17092 15790,35097 27470,50160 13710,17647 25560,48334 47860,46913 59110,-3784 111370,-40413 167050,-60619 34990,-140001 26540,-286036 8440,-427958 -8790,-71774 -30900,-139671 -69430,-200676 -69060,-67649 -151880,-117919 -224580,-182076 -75400,-67879 -143190,-143444 -215410,-214542 -39070,61050 -99180,112942 -117210,183147 -6980,27270 35810,43466 53410,65442 107590,134347 209120,273150 310420,412255 81900,113356 162130,227957 239120,344707 62940,95438 135720,96187 209130,-66064 11750,-25982 -32810,-46683 -49210,-70024 -119800,-86315 -241860,83103 -122070,169415 v 0 c -56640,-99187 -68540,-74842 110810,-163343 10220,-5054 19420,12118 28070,19553 3470,2990 9980,15293 7810,11271 -2960,-5530 -6830,-10530 -10240,-15769 -78790,-119433 -160820,-236704 -244630,-352658 -103580,-142224 -207400,-284149 -317500,-421434 -18870,-23495 -27350,-73943 -57220,-69977 -70470,9367 -124700,68281 -187060,102421 75180,73723 145300,152577 224110,222612 9820,8573 178040,152350 189880,142944 19760,32573 29920,71080 34700,109561 6590,50123 11930,100309 13120,150916 4630,197011 -3780,-52531 -2940,131797 40,7514 2120,14896 3100,22331 47230,-3890 94360,-14314 141670,-11695 7700,529 15140,26829 11300,20161 -49030,-85391 -81880,-179051 -121290,-269015 -42140,-100817 -82900,-203195 -131390,-301194 -14450,-29165 -14290,-80589 -46400,-85891 -71890,-11880 -146370,16616 -214370,42817 -11800,4551 4130,24924 6190,37383 9840,76967 19210,153969 24950,231381 2380,31131 4070,62307 5480,93493 1060,21855 -18950,58068 1580,65614 45470,16722 96560,-7858 144830,-11800 4900,9631 19000,38788 14710,28868 -53980,-125158 -98720,-252703 -134070,-384648 -7360,-27443 -13210,-55269 -19800,-82905 -71030,22860 -1580,4922 -128210,5239 -5790,13 11720,2381 16430,5715 58800,42352 106710,99618 161020,146984 77320,78994 61690,62383 138980,143986 2650,2752 117460,125005 125280,132321 18200,17013 33220,51485 57790,47390 62120,-10346 112430,-56746 168650,-85117 -8760,-90667 -45170,-176789 -63160,-265824 -6080,-22013 -62300,-227021 -74060,-230468 -207930,-61002 -213640,-29594 -210620,91236 790,53922 1850,73607 260,128328 -530,17939 -14890,40783 -2640,53766 9490,9949 23890,-18203 37580,-16986 95050,8387 142710,62839 90600,10425 -37080,-51332 -143940,-217250 -205400,-223060 -48060,-4551 -97860,16007 -138640,41810 -18920,11985 -17040,41417 -25560,62124 -1330,13335 -15590,132752 -5370,133477 160260,11324 142680,-47967 156890,15557 -70470,-169079 -111170,-348329 -164820,-523015 -68330,-8784 -136240,-30906 -204980,-26352 -14580,1058 -11490,26929 -15560,40952 -5930,20399 -9900,41325 -14400,62090 -23700,109574 -44100,219868 -68530,329292 -32290,150019 -27360,129228 -60290,274336 -7300,32253 -45460,73165 -22220,96692 49690,50308 128940,59087 196560,79790 20340,6218 -20370,-104256 18860,-60973 52540,-178887 107030,-357246 167640,-533588 -52270,-46871 -97100,-103693 -156820,-140610 -10770,-6667 -18290,17621 -26380,27350 -39170,46942 -67360,103735 -111210,147225 -110130,129479 -220970,261355 -362490,358021 -14900,9816 -29920,19447 -44680,29464 -13890,9445 -41170,12118 -41280,28932 -1320,194027 -17860,181962 63120,196596 66170,12409 132000,26559 197560,41897 118040,25982 236780,48548 357750,55557 177500,15875 355110,32536 533510,32954 80040,264 159940,529 239930,-2752 4900,-196 64390,-2831 75180,-5133 16270,-3466 31950,-9366 47930,-14049 56630,-101497 65320,-83450 53860,-162730 -7460,-68815 -15290,-137773 -50410,-199244 -80050,-138893 -184300,-261631 -282110,-388056 -153880,-193017 -309400,-384826 -472970,-569767 -21490,-22331 -55190,-61818 -84940,-74930 -86160,-37979 -153110,2381 -187850,81145 -71890,158869 -126280,325339 -197680,484489 -86800,192698 -177440,384516 -304490,554696 -63640,84828 -37390,28390 125930,172919 1860,1587 2390,-4287 3730,-6403 11140,-18839 5320,-9102 22600,-34764 6720,-9975 13410,-19950 20110,-29924 59500,-89379 119280,-178544 188350,-261022 107440,-137917 216550,-274511 324640,-411880 14870,-19209 33980,-35650 45060,-57266 1330,-2831 -5470,3439 -8540,4206 -18740,4604 -37780,15743 -56660,11827 -59590,-12382 -60300,-22754 -77850,-57171 530,-22331 5400,23786 6140,43749 530,13388 1060,111382 1320,117388 270,27122 1060,54239 1590,81359 8180,257694 28680,514726 46500,771888 25110,367471 43440,735195 61980,1103032 30250,351425 77230,701286 149010,1046829 70410,334306 143810,670153 282070,984345 21010,45487 40510,91713 63060,136459 96780,192061 225350,365787 372040,522470 160200,167143 325450,329401 489630,492631 137620,130312 278650,258878 462310,319984 32190,9922 63930,21458 96580,29750 162020,41074 330270,38666 496010,33131 143600,-7964 287060,-19950 428320,-48197 146030,-21801 115190,-228327 -30840,-206520 z"
     inkscape:export-xdpi="300"
     inkscape:export-ydpi="300" />
  <g
     id="g2053"
     transform="translate(-118556390,-61415980)"
     inkscape:export-xdpi="300"
     inkscape:export-ydpi="300"
     style="stroke-width:79374.9996235;stroke-miterlimit:4;stroke-dasharray:none">
    <path
       style="fill:#040000;stroke:#000017;stroke-width:79374.9996235;stroke-linecap:round;stroke-linejoin:bevel;stroke-miterlimit:4;stroke-dasharray:none"
       id="path1935"
       d="m 138204960,62011958 c -165150,-40946 -330730,-28408 -495520,4789 -162510,42850 -325760,101214 -458590,207526 -28400,22728 -54100,48668 -81150,73002 -159440,157810 -280430,346942 -370530,551238 -66220,175524 -82360,371118 11210,541242 18710,34010 44660,63508 66980,95261 29900,26712 57050,56845 89680,80139 154110,110033 356920,132162 540340,106500 49670,-6958 97920,-21828 146880,-32723 202520,-70493 386550,-202676 477720,-402701 13070,-28657 20340,-59606 30540,-89411 2640,-30671 9890,-61328 7560,-92017 -13680,-181298 -163190,-256312 -314660,-306350 -93990,-20982 -193840,-37786 -288100,-11377 13050,67315 10010,139864 39120,201943 7940,16907 37380,2116 56010,794 96950,-6589 191850,-37325 284980,-62879 58790,-18177 116910,-34644 178370,-26061 43750,6694 80470,-4868 118310,-26167 119010,-87395 -4570,-255702 -123590,-168307 v 0 c 7220,-3440 14000,-8070 21670,-10345 37580,-11113 23680,-265 9390,-2382 -88820,-10345 -174570,3996 -259400,31906 -62060,17040 -124070,35259 -187210,47969 -15060,3017 -30250,5239 -45430,7488 -6160,794 -18200,-4260 -18570,1852 -3790,65458 4710,131048 7090,196572 -8020,1588 -16200,2646 -24050,4948 -4080,1323 8380,-1323 12590,-1587 9050,-530 18120,-530 27180,-265 43300,794 86510,4710 128710,14923 44230,13017 155680,44066 168970,98395 2990,12198 1320,25056 2120,37579 -50100,180515 -186970,286115 -356560,352015 -37730,9260 -74830,21669 -113210,27744 -161250,25559 -322980,8282 -448350,-102224 -14500,-18177 -31220,-34790 -43510,-54525 -72130,-115750 -55990,-252754 -11350,-374555 76610,-178126 183260,-341990 319850,-480433 51300,-47639 65140,-65059 123180,-102002 96970,-61722 207800,-98304 317880,-128268 136110,-28673 272370,-39634 409030,-5291 144270,31429 188720,-172596 44450,-204026 z" />
    <path
       style="fill:#040000;stroke:#000017;stroke-width:79374.9996235;stroke-linecap:round;stroke-linejoin:bevel;stroke-miterlimit:4;stroke-dasharray:none"
       id="path1937"
       d="m 138700010,62167205 c 9440,193278 -49830,381725 -102780,565346 -53740,180025 -125490,353785 -200800,525651 27770,5027 -55560,65553 -30350,75930 67540,27805 141540,59205 213750,48209 33540,-5106 34390,-58507 50370,-88431 54810,-102661 84140,-167677 134810,-274167 90250,-197829 179250,-396653 243470,-604671 26410,-100372 68840,-144290 -162190,-34321 -13150,6270 11850,26627 18130,39782 11240,23628 22930,47064 34410,70599 100370,197305 211830,388615 327190,577451 40680,64198 83140,127338 129560,187539 90290,116827 255510,-10848 165220,-127691 v 0 c -41900,-54059 -79790,-111106 -116590,-168717 -111970,-183213 -220160,-368810 -317720,-560167 -10690,-21881 -21620,-43654 -32090,-65646 -6870,-14473 -4360,-40061 -19940,-43707 -216540,-50604 -193480,-51948 -225540,63431 -60910,198454 -146920,387626 -232470,576440 -49900,104998 -74700,160325 -127930,260932 -13680,25850 -57340,50943 -43030,76446 33620,59929 103540,90689 159310,130834 16430,11827 -27090,-144711 22910,-56290 78980,-180327 154000,-362730 210200,-551656 60650,-210918 125690,-427392 109270,-649354 -18540,-146481 -225700,-120256 -207160,26220 z" />
    <path
       style="fill:#040000;stroke:#000017;stroke-width:79374.9996235;stroke-linecap:round;stroke-linejoin:bevel;stroke-miterlimit:4;stroke-dasharray:none"
       id="path1939"
       d="m 138700320,63087408 c 148990,-17172 299460,-13838 449090,-9499 72210,6006 138840,-1587 206000,-27477 134320,-61320 47600,-251272 -86720,-189955 v 0 c 4100,8335 3550,4921 -17910,7356 -29750,3386 -66410,1587 -95360,1323 -162150,-4657 -325230,-7885 -486590,11800 -145960,22251 -114480,228685 31480,206425 z" />
    <path
       style="fill:#040000;stroke:#000017;stroke-width:79374.9996235;stroke-linecap:round;stroke-linejoin:bevel;stroke-miterlimit:4;stroke-dasharray:none"
       id="path1941"
       d="m 140234750,62392255 c -17960,210883 -20400,422632 -20030,634145 5350,149426 3020,300749 28190,448654 1330,5662 2380,11351 3760,17013 32890,143944 236450,97440 203570,-46503 v 0 c -530,-2382 -1060,-4736 -1850,-7118 -25880,-135289 -16880,-275748 -24950,-412451 -530,-207311 2110,-414848 19650,-621538 8660,-147399 -199810,-159618 -208450,-12224 z" />
    <path
       style="fill:#040000;stroke:#000017;stroke-width:79374.9996235;stroke-linecap:round;stroke-linejoin:bevel;stroke-miterlimit:4;stroke-dasharray:none"
       id="path1943"
       d="m 139575000,62365352 c 221210,53708 447360,80261 673790,99213 185730,9922 372240,11404 557880,-1058 69670,-10583 151460,-19420 206140,-69951 16720,-15451 27960,-35946 41940,-53919 74740,-127341 -105350,-233034 -180080,-105696 v 0 c 5340,-3254 9970,-8202 16030,-9763 2120,-529 -260,5107 -2120,6218 -28460,16669 -64340,19235 -95870,24765 -175180,11933 -351210,10080 -526490,1323 -215680,-17939 -431120,-42979 -641840,-94036 -143480,-34861 -192780,168048 -49300,202909 z" />
    <path
       style="fill:#040000;stroke:#000017;stroke-width:79374.9996235;stroke-linecap:round;stroke-linejoin:bevel;stroke-miterlimit:4;stroke-dasharray:none"
       id="path1945"
       d="m 141787890,62236584 c -31130,276778 -52270,554451 -70830,832306 2110,164629 -39270,331316 -21270,495710 8220,19103 11480,41240 24680,57311 16990,20690 38860,38362 63150,49612 74660,34573 238010,8969 319130,2117 137490,-15637 276170,-16140 413350,-34126 63490,-8546 118810,-32925 168970,-71726 112810,-95258 -21910,-254799 -134710,-159541 v 0 c -12180,14420 -41530,20505 -61820,24288 -133710,18151 -269240,16802 -403240,33028 -50580,4260 -103010,9102 -153820,11801 -33790,1852 -58700,-1852 -54550,7276 32280,70244 16990,-4445 25720,51416 -8360,-34819 -530,-79634 1580,-113810 7200,-113162 14240,-226335 21090,-339519 18390,-275590 39370,-550995 70270,-825513 14630,-146923 -193140,-167629 -207790,-20717 z" />
    <path
       style="fill:#040000;stroke:#000017;stroke-width:79374.9996235;stroke-linecap:round;stroke-linejoin:bevel;stroke-miterlimit:4;stroke-dasharray:none"
       id="path1947"
       d="m 141821490,62914585 c 172870,-11801 345340,-24951 516970,-49213 67450,-10239 134050,-24791 200190,-41373 143210,-35920 92420,-238458 -50800,-202538 v 0 c -59050,14816 -118480,27987 -178710,37168 -169550,24130 -340010,36238 -510740,48424 -146750,16325 -123650,223864 23090,207532 z" />
    <path
       style="fill:#040000;stroke:#000017;stroke-width:79374.9996235;stroke-linecap:round;stroke-linejoin:bevel;stroke-miterlimit:4;stroke-dasharray:none"
       id="path1949"
       d="m 141745020,62299320 c 209250,6059 418140,20240 627120,31906 101580,5794 203480,12118 304890,1587 146790,-15928 124250,-223528 -22540,-207589 v 0 c -89930,10292 -180630,1323 -270710,-2381 -210740,-11774 -421370,-26062 -632380,-32134 -147590,-4498 -153970,204203 -6380,208714 z" />
  </g>
  <g
     id="g2066"
     transform="translate(-104378400,-62355480)"
     inkscape:export-xdpi="300"
     inkscape:export-ydpi="300"
     style="stroke-width:79374.9996235;stroke-miterlimit:4;stroke-dasharray:none">
    <path
       style="fill:#040000;stroke:#000017;stroke-width:79374.9996235;stroke-linecap:round;stroke-linejoin:bevel;stroke-miterlimit:4;stroke-dasharray:none"
       id="path1951"
       d="m 115710130,69938224 c 5880,358045 36850,715161 66730,1071841 -60,103910 35330,210291 13710,313489 -22680,145899 183650,177972 206330,32070 v 0 c 3230,-24765 8520,-49348 9660,-74295 4440,-96467 -20510,-192556 -21620,-288700 -29320,-349983 -59730,-700379 -66010,-1051685 1850,-147637 -206870,-150357 -208800,-2725 z" />
    <path
       style="fill:#040000;stroke:#000017;stroke-width:79374.9996235;stroke-linecap:round;stroke-linejoin:bevel;stroke-miterlimit:4;stroke-dasharray:none"
       id="path1953"
       d="m 114932190,70324183 c 267940,-123643 557250,-188397 845910,-241835 239250,-39121 480410,-65026 721920,-85116 60090,-4551 33000,-2646 81260,-6112 147240,-10927 131800,-219160 -15460,-208238 v 0 c -49090,3652 -21370,1588 -83130,6244 -248490,20691 -496620,47414 -742740,87911 -309830,57761 -620440,127997 -906970,263393 -129930,70146 -30720,253888 99200,183740 z" />
    <path
       style="fill:#040000;stroke:#000017;stroke-width:79374.9996235;stroke-linecap:round;stroke-linejoin:bevel;stroke-miterlimit:4;stroke-dasharray:none"
       id="path1955"
       d="m 116382530,70781184 c 20080,247222 37030,496975 28040,745149 25820,-138517 -38980,139446 179190,-68601 29690,-28316 -9690,-81494 -13440,-122351 -17620,-190768 -26710,-381569 -33330,-572972 790,-130100 -12750,-465777 148340,-527830 12780,-4921 27310,-1852 40970,-2858 8990,5848 19630,9737 26970,17542 23020,24474 26560,53367 28310,86088 5920,110805 -31860,198355 -73720,298791 -38870,86511 -90260,165833 -144700,243057 -6030,8546 -49430,67437 -56700,81867 -8130,16087 -13210,33547 -19790,50319 11080,38581 10840,82425 33240,115744 25090,37338 131780,75968 169200,91552 130740,54432 262050,107436 393360,160456 149740,46530 294540,132395 443680,178446 92220,-265 45210,12118 134890,-55666 76350,-126378 -102370,-234357 -178730,-107982 v 0 c 75400,-48172 39390,-44561 102100,-36869 -38690,-9473 -75800,-30213 -111940,-45829 -102920,-44460 -207960,-83558 -311820,-125725 -130730,-52781 -261160,-106203 -391590,-159731 -40130,-16484 -79870,-38534 -82450,-24395 -4260,23363 -210,47496 -260,71245 -14820,8598 -8490,5979 13440,-25612 74080,-106804 151100,-211998 201830,-332870 43240,-110318 80570,-180493 87290,-302247 8100,-146851 -43510,-308604 -193720,-365215 -39570,-14922 -84090,-9181 -126130,-13784 -38570,13970 -80590,20664 -115690,41867 -227350,137293 -224590,467945 -225000,696857 6880,196914 15190,393663 34600,589841 4870,49250 -15110,110522 17910,147386 50130,55954 127940,90229 202570,98756 25880,2963 19930,-48133 29880,-72199 8360,-259334 -7360,-520097 -29560,-778370 -18470,-146495 -225630,-120388 -207170,26114 z" />
    <path
       style="fill:#040000;stroke:#000017;stroke-width:79374.9996235;stroke-linecap:round;stroke-linejoin:bevel;stroke-miterlimit:4;stroke-dasharray:none"
       id="path1957"
       d="m 117662910,70338216 c 29460,218017 73700,433470 119420,648536 4530,70739 58270,162873 34450,232172 -27230,145122 178000,183629 205230,38510 v 0 c 3200,-22145 8700,-44090 9630,-66455 3470,-84500 -33970,-165153 -45050,-247653 -45730,-215061 -89500,-430535 -119420,-648472 -30660,-144434 -234920,-101071 -204250,43362 z" />
    <path
       style="fill:#040000;stroke:#000017;stroke-width:79374.9996235;stroke-linecap:round;stroke-linejoin:bevel;stroke-miterlimit:4;stroke-dasharray:none"
       id="path1959"
       d="m 117309580,69941913 c 70920,57430 139810,118528 227040,148481 74140,9287 118620,-22595 150360,-85159 1850,-3545 -1590,13706 -4650,11007 -49450,-45032 -93670,-95480 -140510,-143219 20740,-8572 10960,-4180 -31120,8070 -138190,52001 -64650,247433 73540,195432 v 0 c -22510,1323 -13890,1323 25170,-5927 -36990,-51112 -69500,-105770 -110950,-153331 -4100,-4710 -13520,14367 -7860,16986 5660,2646 5160,-11562 9130,-16404 23860,-29009 54670,-38087 90950,-29155 23390,19130 -35810,-20796 -37410,-21907 -36770,-25718 -35370,-25691 -73480,-56142 -13280,-10610 -26570,-21246 -39850,-31851 -115350,-92180 -245710,70938 -130370,163119 z" />
    <path
       style="fill:#040000;stroke:#000017;stroke-width:79374.9996235;stroke-linecap:round;stroke-linejoin:bevel;stroke-miterlimit:4;stroke-dasharray:none"
       id="path1961"
       d="m 118769950,70046331 c -25370,11747 -52110,20902 -76110,35224 -159710,95350 -284350,265144 -361050,431572 -24690,53552 -40940,110593 -61410,165888 -45490,179698 -45510,362368 17010,538518 32450,91400 84510,193034 175980,241382 42270,22330 93360,20637 140040,30961 43750,-17357 92130,-25903 131260,-52081 116210,-77705 170840,-254029 119360,-382635 -10930,-27310 -31660,-49588 -47490,-74382 -43000,-46167 -95030,-75113 -154420,-93948 -10370,-3281 -20790,-8308 -31660,-7991 -25530,794 -70330,-13917 -75850,11033 -14400,65109 19760,131898 29630,197845 228730,62585 469910,65638 705460,59286 112690,-6298 225870,-12992 337240,-32251 19820,-4074 18100,-3333 -5560,-529 147650,1059 149220,-207698 1590,-208806 v 0 c -27660,2381 -17140,264 -31940,3625 -101340,17938 -204620,22807 -307130,29217 -207600,5980 -418480,2779 -621770,-44301 -3840,60438 12040,125507 -11480,181321 -8810,20929 -45340,3360 -67780,6853 -3650,529 7330,1058 10900,1852 19180,5001 38310,11351 55420,21511 66600,40648 4500,124788 -17120,176257 -33450,21035 -37690,34412 -79200,-17013 -77640,-96189 -103590,-251872 -98470,-370943 2110,-48508 14920,-95956 22350,-143933 15850,-45135 28110,-91694 47530,-135403 64230,-144521 168100,-287417 307490,-366263 142850,-37346 90030,-239366 -52820,-202020 z" />
    <path
       style="fill:#040000;stroke:#000017;stroke-width:79374.9996235;stroke-linecap:round;stroke-linejoin:bevel;stroke-miterlimit:4;stroke-dasharray:none"
       id="path1963"
       d="m 119967650,70141305 c -147330,145400 -254980,330185 -309140,530445 -13710,50718 -20190,103124 -30270,154683 -1320,51557 -8620,103323 -3810,154668 14550,154670 102130,377865 277280,413967 37980,7832 77440,-4260 116160,-6377 31380,-25929 69480,-45376 94140,-77758 83340,-109437 21670,-245240 -26890,-351189 21350,32694 -2940,-10557 2640,62714 1060,12488 192210,-50274 206270,-54523 102300,-33991 207040,-62971 301890,-115271 128870,-72062 26960,-254315 -101910,-182250 v 0 c -80820,46302 -173580,66016 -260420,97647 -72960,22066 -254980,59997 -302950,116864 -22700,26924 -38210,60846 -45710,95258 -4790,21987 6930,44455 10400,66683 14360,31255 30180,61521 43510,93220 2810,6668 6110,13150 8390,20003 1850,5688 -530,13652 4020,17542 6350,5424 16140,4392 24210,6588 2700,12356 14390,39756 -24690,16034 -18860,-11457 -34710,-27938 -48070,-45490 -65100,-85490 -77710,-185269 -69300,-289677 7520,-41791 11910,-84262 22520,-125375 43160,-167315 130970,-322805 252990,-444672 108720,-99907 -32570,-253656 -141290,-153750 z" />
    <path
       style="fill:#040000;stroke:#000017;stroke-width:79374.9996235;stroke-linecap:round;stroke-linejoin:bevel;stroke-miterlimit:4;stroke-dasharray:none"
       id="path1965"
       d="m 120571950,70123430 c 60810,258432 83590,524082 116210,787112 16490,121708 33830,243311 55390,364236 3290,18335 18580,107055 28330,129217 10430,23733 26460,44572 39690,66858 27580,16880 51510,42238 82740,50614 133060,35693 314550,-75980 422460,-143859 74330,-57613 40250,-28935 102940,-85220 109450,-99099 -30700,-253891 -140150,-154791 v 0 c -46310,42404 -21540,21034 -74710,63730 -52030,33427 -57840,39222 -115160,67170 -20660,10080 -41770,19288 -63070,28003 -16110,6588 -33990,9208 -49110,17859 -13520,7726 1060,28761 3330,34240 -20660,6218 -8540,5133 -18490,-40111 -5030,-22860 -8870,-45942 -12990,-68971 -21040,-117745 -37890,-236165 -53990,-354677 -33730,-271973 -57490,-546624 -121270,-813673 -36950,-142952 -239120,-90691 -202160,52263 z" />
    <path
       style="fill:#040000;stroke:#000017;stroke-width:79374.9996235;stroke-linecap:round;stroke-linejoin:bevel;stroke-miterlimit:4;stroke-dasharray:none"
       id="path1967"
       d="m 120944710,70840171 c 115290,-48943 229080,-100502 339500,-159692 130060,-69890 31230,-253826 -98840,-183936 v 0 c -108620,58526 -221210,108048 -334390,157033 -131940,66275 -38210,252870 93730,186595 z" />
    <path
       style="fill:#040000;stroke:#000017;stroke-width:79374.9996235;stroke-linecap:round;stroke-linejoin:bevel;stroke-miterlimit:4;stroke-dasharray:none"
       id="path1969"
       d="m 120484190,70052924 c 155410,4154 309790,24553 465030,32941 57850,2910 115250,-3572 173010,-4154 147640,-2117 144790,-210802 -2830,-208794 v 0 c -53120,794 -105860,5742 -159020,4419 -165080,-8731 -329270,-32801 -494700,-32414 -147070,13097 -128550,221083 18520,207989 z" />
    <path
       style="fill:#040000;stroke:#000017;stroke-width:79374.9996235;stroke-linecap:round;stroke-linejoin:bevel;stroke-miterlimit:4;stroke-dasharray:none"
       id="path1971"
       d="m 121609930,70175151 c 27920,197966 34640,398158 41530,597731 790,32662 2110,65323 2640,97993 530,24527 530,49081 220,73621 -180,15002 -17890,47268 -3040,44923 216600,-34250 201250,37722 192100,-90352 -8650,-247767 3970,-496306 40440,-741598 8020,-53930 15800,-108067 28840,-161012 9200,-37375 25110,-72774 37650,-109162 12860,-14023 21170,-34491 38610,-42109 7330,-3201 6800,16352 3620,23681 -5630,12938 -28090,17780 -27810,31866 530,25374 22650,45707 29830,70046 29020,98279 20340,95612 12300,194236 -14740,79983 -44540,153977 -88600,222057 -5130,7937 -58280,78451 -61690,87135 -12410,31625 -17040,65770 -25560,98658 6430,36999 7300,75409 19290,111003 67500,200443 299510,371787 461230,495427 101610,67252 196780,149725 308620,200282 22890,1322 45770,2698 68660,4074 144260,-31435 99800,-235458 -44460,-204023 v 0 c 18490,2382 36980,4631 55470,6932 -10900,-529 -57480,-33184 -61740,-35909 -68130,-43548 -134700,-89490 -199870,-137350 -151570,-115443 -313630,-234712 -400740,-409274 -19310,-24553 -11850,-7646 19690,-52988 80030,-115006 141170,-235831 158310,-377624 1860,-133061 16220,-175519 -37430,-302286 -43200,-102061 -107390,-195506 -233990,-205370 -105520,-8228 -146720,89842 -191790,155356 -15060,46241 -33680,91474 -45190,138726 -13780,56634 -22010,114517 -30510,172183 -38310,260085 -51470,523660 -41110,786291 15460,145198 -16880,131575 219660,116409 12330,-794 5180,-24236 6290,-36536 2650,-29068 1860,-110567 1330,-132932 -530,-33200 -1860,-66387 -2680,-99582 -7170,-207433 -14420,-415485 -43670,-621223 -21700,-146047 -228250,-115350 -206540,30700 z" />
  </g>
  <g
     id="g2011"
     transform="matrix(0.53552419,0,0,0.53552419,-51452981,-30056295)"
     inkscape:export-xdpi="300"
     inkscape:export-ydpi="300"
     style="stroke-width:98812.8405846;stroke-miterlimit:4;stroke-dasharray:none">
    <path
       style="fill:#040000;stroke:#000017;stroke-width:98812.8405846;stroke-linecap:round;stroke-linejoin:bevel;stroke-miterlimit:4;stroke-dasharray:none"
       id="path1927"
       d="m 124309240,63471839 c 46500,423006 114440,843309 186230,1262642 32140,178269 65640,356296 101020,533951 6190,31115 13520,62013 18940,93268 2650,14922 -4970,56436 5110,45148 24150,-27000 29040,-66378 43560,-99568 23630,-12805 72510,-11615 70850,-38430 -2970,-47628 -54280,-78510 -80570,-118333 -34520,-52287 -68250,-105092 -101850,-157977 -100590,-158348 -197510,-317630 -288700,-481539 -111840,-218578 -166820,-391512 -114640,-638839 33870,-160496 67970,-207619 139110,-353399 31230,-48371 164200,-271245 267000,-214431 12570,6958 6140,28059 8470,42227 13780,84074 12570,98036 20740,195517 -5030,190640 1320,72956 -15500,253005 -7620,81327 -25880,152982 31590,227727 72250,93988 172540,118567 274770,158795 121660,49109 259050,90979 313400,224676 64190,157911 3910,288039 -51620,433485 -105040,214244 -258660,399960 -438460,555480 -9500,7408 -18840,15055 -28500,22251 -37050,27580 9100,-12541 16320,-5133 139050,143256 61680,206870 124760,148485 106440,-102328 -38270,-252860 -144710,-150533 v 0 c -67890,66554 -60950,44329 69120,204989 10630,13150 95660,-59439 99970,-62428 206260,-179840 381810,-393814 498200,-643007 57760,-171071 104650,-245472 82040,-430686 -35720,-292685 -218800,-397690 -466170,-492717 -35480,-12939 -70240,-27996 -106430,-38783 -11740,-3493 -71280,-265 -75100,-31509 -4100,-33494 5610,-67257 8650,-100862 18150,-199210 12170,-79380 15130,-297053 -16270,-119399 -14100,-250664 -110920,-344472 -155200,-150381 -348080,-44815 -464620,85257 -45740,51046 -77630,112974 -116430,169463 -81760,173225 -122430,231177 -158560,422624 -54660,289624 8490,506751 139970,761471 93540,167764 192580,330983 295640,493115 1320,2116 179090,281077 196580,295722 51970,43508 120050,62965 180070,94451 24710,-38032 58120,-71660 74140,-114091 4520,-11959 -24950,-145966 -26480,-153591 -35050,-176001 -68240,-352367 -100100,-528968 -70800,-413390 -137740,-827731 -183950,-1244701 -12220,-147142 -220320,-129847 -208100,17304 z" />
    <g
       id="g2001"
       style="stroke-width:98812.8405846;stroke-miterlimit:4;stroke-dasharray:none">
      <path
         style="fill:#040000;stroke:#000017;stroke-width:98812.8405846;stroke-linecap:round;stroke-linejoin:bevel;stroke-miterlimit:4;stroke-dasharray:none"
         id="path1929"
         d="m 125376200,63272793 c 16960,318850 99630,631783 166990,943015 39910,181009 77850,362442 116250,543774 17440,82312 45110,171300 48170,256117 -164850,-63524 136930,-81883 120950,-141962 -12940,-48686 -43930,-90871 -61050,-138248 -28030,-77525 -51900,-156551 -74200,-235913 -70310,-250269 -78590,-317423 -129280,-571838 -23020,-205949 -74240,-433623 19260,-631804 14850,-31446 37440,-60407 65040,-81550 11670,-8917 36900,-14817 44000,-1852 7140,12911 -16540,24447 -24820,36682 -4000,18547 -11010,36681 -11960,55620 -23340,460680 35210,-247962 -3550,241824 -2880,36592 -7910,72983 -11800,109480 -3140,29477 -10610,58824 -9310,88442 1320,33210 11620,65460 17410,98192 21010,31194 39100,64572 63040,93580 16240,16061 138150,135758 152800,153692 37680,46106 103730,153466 127430,206269 15800,35173 24900,72982 37340,109471 14810,212077 -62380,339614 -182580,501174 -88060,118520 79550,243049 167610,124529 v 0 c 120290,-162116 217840,-323152 225380,-533443 1850,-54234 -9130,-108156 -13680,-162234 -17330,-47257 -30920,-96068 -52020,-141769 -58020,-125651 -141870,-233828 -239140,-330687 -62800,-62534 -36970,-47445 -83150,-69374 -4260,-9181 -12490,-17409 -12780,-27514 -790,-29567 6220,-58838 9310,-88257 4260,-40389 9770,-80663 12700,-121166 5450,-74782 14420,-239466 -4500,-310491 -16480,-61883 -52670,-116742 -79020,-175112 -55630,-16960 -108910,-55266 -166900,-50863 -50360,3810 -96100,38528 -132460,73583 -41960,40457 -72990,92678 -95680,146367 -98240,232442 -53960,488302 -22730,728224 51190,255688 63270,342587 135040,594164 25400,89056 97070,332306 160640,426953 30250,45027 59380,114046 113560,116546 60180,2778 98310,-69670 147460,-104502 -8070,-96946 -32080,-190334 -52240,-285488 -38470,-181632 -76480,-363361 -116450,-544669 -63670,-294185 -140570,-589590 -162430,-890357 6010,-147532 -202640,-156020 -208640,-8494 z" />
      <path
         style="fill:#040000;stroke:#000017;stroke-width:98812.8405846;stroke-linecap:round;stroke-linejoin:bevel;stroke-miterlimit:4;stroke-dasharray:none"
         id="path1973"
         d="m 126728970,63907677 c -21770,14473 -45740,26114 -65330,43447 -124220,109932 -205620,276305 -237060,437372 -9210,47123 -10500,95446 -15740,143169 2380,47030 530,94480 7190,141089 26590,184309 123410,381773 339410,385728 53590,1058 104870,-22225 157310,-33319 42470,-24289 88570,-43108 127400,-72863 103770,-79505 201490,-222698 165430,-362313 -35100,-135911 -93920,-146979 -199180,-215442 -171590,-40952 -86610,-33023 -254630,-27109 -147360,9419 -134050,217794 13310,208388 v 0 c 92330,-10610 45930,-10768 139180,794 3830,1323 83660,27461 92630,40137 60080,84915 -81980,195742 -141530,227595 -42460,20293 -65860,41703 -114580,30194 -111950,-26458 -118080,-215069 -124160,-302268 3100,-36092 3120,-72573 9260,-108273 21880,-127463 84320,-264176 186720,-345921 134680,-60540 49060,-250992 -85610,-190453 z" />
      <path
         style="fill:#040000;stroke:#000017;stroke-width:98812.8405846;stroke-linecap:round;stroke-linejoin:bevel;stroke-miterlimit:4;stroke-dasharray:none"
         id="path1975"
         d="m 127398880,64173816 c -9000,165714 3380,336688 85910,484661 14820,26580 34210,50350 51310,75525 92660,95584 186200,156613 317610,78367 49100,-29228 79410,-85505 109410,-130913 69670,-131842 80750,-276489 72080,-422362 -7250,-80852 -12250,-140737 -55110,-210733 -90720,-116499 -255470,11801 -164760,128291 v 0 c -27320,-64209 21570,80566 11460,95465 6750,101560 3520,203512 -40130,297688 -7540,12911 -15030,25823 -22600,38711 -4310,7355 -14420,13626 -13040,22040 1060,7090 14260,5265 18440,11086 13230,18415 -85090,-18601 -62760,-28057 -94990,-126312 -109080,-267007 -99810,-421576 12860,-147090 -195150,-165283 -208010,-18204 z" />
      <path
         style="fill:#040000;stroke:#000017;stroke-width:98812.8405846;stroke-linecap:round;stroke-linejoin:bevel;stroke-miterlimit:4;stroke-dasharray:none"
         id="path1977"
         d="m 128737190,63825061 c -137840,192577 -195120,426212 -231500,656611 -13330,137025 -20050,307819 191740,263041 58040,-12277 134350,-117721 167260,-157091 120290,-164661 213250,-347292 261060,-545746 790,-10848 16960,-122404 -11490,-128712 -65260,-14472 -141000,-14419 -199790,17410 -32300,17489 -21270,70395 -28820,106341 -20190,96250 -23310,169622 -32000,268708 -20750,310489 54540,611294 142560,905950 26350,82068 29060,92265 55200,167706 6110,17674 13490,34933 18810,52861 1850,6456 3050,26760 2830,20029 -1850,-58095 -9440,-22199 5590,-68879 -164450,31186 -331690,43534 -498260,57608 -176140,16272 -145050,-41119 -52470,191653 133920,-62201 45950,-251579 -87960,-189375 v 0 c 2850,71353 -1060,143301 8570,214056 1060,6985 147010,-9737 149430,-8255 193660,-16378 391300,-25109 578330,-81106 27280,-22251 62660,-37205 81850,-66720 41490,-63809 12090,-128151 -9020,-189029 -25000,-72083 -27620,-81915 -52860,-160366 -80670,-269399 -152260,-544100 -134570,-828191 15000,-177919 3860,-80754 27480,-239964 2390,-16775 22260,-42714 7120,-50337 -374720,-188785 -130180,55782 -173820,-66688 -3090,-8705 -40,18494 -50,27752 -37730,168174 -121100,321270 -219690,461491 -16350,20876 -33470,41180 -49040,62649 -5880,8122 -21270,17965 -15190,25929 15900,20849 49490,21881 66710,41627 9180,10530 -3970,51567 5740,41513 26330,-27287 -52040,-92380 1060,-113747 29270,-191199 74730,-385136 180930,-549651 98340,-110135 -57420,-249211 -155760,-139073 z" />
      <path
         style="fill:#040000;stroke:#000017;stroke-width:98812.8405846;stroke-linecap:round;stroke-linejoin:bevel;stroke-miterlimit:4;stroke-dasharray:none"
         id="path1979"
         d="m 129402670,64037235 c 33300,228421 49440,458886 76220,688094 11850,81669 7750,200652 149560,189966 68260,-5133 119910,-167055 143630,-220969 65030,-112038 143550,-247627 254690,-320347 119720,-86424 -2380,-255728 -122220,-169305 v 0 c -139440,105267 -243930,251614 -323690,405752 -10530,24051 -21450,47951 -31580,72173 -7440,17780 -36920,42704 -21170,53779 17990,12647 39650,-32795 60590,-26088 44190,14182 71660,60127 112750,81712 27210,14287 -100540,-170638 -15190,-90951 -27360,-233471 -43380,-468299 -78120,-700878 -26190,-145310 -231690,-108257 -205490,37052 z" />
      <path
         style="fill:#040000;stroke:#000017;stroke-width:98812.8405846;stroke-linecap:round;stroke-linejoin:bevel;stroke-miterlimit:4;stroke-dasharray:none"
         id="path1981"
         d="m 130481450,64661925 c 143960,-124122 221380,-299816 288510,-473284 22440,-94973 29230,-206386 -105860,-231416 -100160,-18547 -184480,103791 -235080,166286 -98080,144579 -157010,311904 -131050,488526 5340,36354 17140,71459 25710,107188 58760,136652 154280,261766 303250,306399 98890,29630 137210,15240 237000,4259 146300,-19949 118090,-226843 -28210,-206896 v 0 c -22700,4154 -45120,10583 -68120,12436 -115490,9339 -193220,-72515 -241750,-168469 -6480,-22569 -15370,-44590 -19470,-67717 -22250,-125257 18040,-241999 86310,-346078 12620,-16457 24740,-33311 37870,-49355 8520,-10398 28170,-16537 27010,-29909 -1060,-10821 -22600,-3836 -30580,-11192 -21380,-19711 -40380,-42560 -54980,-67696 -2830,-4868 5710,-21034 6640,-15504 1850,11218 -2380,22648 -3520,33991 -52690,137189 -110170,279103 -219440,381722 -117870,88929 7910,255619 125760,166687 z" />
    </g>
  </g>
  <g
     id="g2019"
     transform="matrix(0.53552419,0,0,0.53552419,-51887871,-30118457)"
     inkscape:export-xdpi="300"
     inkscape:export-ydpi="300"
     style="stroke-width:98812.8405846;stroke-miterlimit:4;stroke-dasharray:none">
    <path
       style="fill:#040000;stroke:#000017;stroke-width:98812.8405846;stroke-linecap:round;stroke-linejoin:bevel;stroke-miterlimit:4;stroke-dasharray:none"
       id="path1983"
       d="m 126316230,66670999 c -9850,243988 790,488190 14360,731811 1590,27178 3360,54358 5160,81528 4660,70565 2120,42540 9420,101492 270,2116 -2910,-5795 -790,-6482 65210,-21061 141390,-17701 197520,-57034 19550,-13679 -11160,-46403 -16750,-69604 -57250,-244205 -112560,-488810 -178150,-730941 -40660,-134101 -22600,-223467 -214910,-19261 -12620,13388 19820,31075 31180,45540 16270,20717 34430,39899 51650,59851 49130,41971 99010,94094 165970,108813 225460,49556 421120,-108387 592950,-227862 84330,-41365 172940,-168600 269660,-184677 14100,-2381 13600,35907 19050,68713 66640,238688 90120,487323 116230,733102 14730,56594 2800,145203 26860,200448 9580,21987 24900,41027 37350,61540 103650,105150 252360,-41437 148700,-146590 v 0 c 6120,14076 7650,31223 18340,42254 7140,7382 -4950,-19976 -6590,-30141 -7990,-49126 -12090,-100309 -17010,-149569 -28910,-272045 -52410,-549431 -139990,-809977 -25210,-37994 -42140,-83013 -75600,-113985 -27890,-25824 -64950,-42900 -102170,-50568 -166250,-34247 -293450,126961 -414340,208238 -83820,58785 -149690,109138 -240170,156848 -4550,2381 -116600,54901 -144390,53268 -37560,-2116 -71770,-36848 -98010,-57726 -12170,-13494 -25130,-26300 -36520,-40442 -9150,-11351 -10530,-38092 -24950,-35952 -255960,37979 -203990,38217 -164810,182769 65120,240215 119810,482944 176690,725210 32550,135022 -2380,94766 231030,76816 6540,-529 -250,-13096 -790,-19605 -9660,-96412 2860,77626 -8070,-87662 -1850,-26646 -3390,-53303 -5060,-79952 -13070,-234712 -23440,-469953 -14600,-705032 10740,-147262 -197530,-162441 -208260,-15187 z" />
    <path
       style="fill:#040000;stroke:#000017;stroke-width:98812.8405846;stroke-linecap:round;stroke-linejoin:bevel;stroke-miterlimit:4;stroke-dasharray:none"
       id="path1985"
       d="m 128368960,66991838 c -181230,-23178 -355970,23600 -521040,94551 -25710,18177 -54500,32650 -77130,54549 -104200,100854 -129600,258765 -45010,381095 22250,32187 55150,55529 82730,83294 41790,17621 81150,42802 125370,52845 200240,45471 393110,-69749 512050,-224033 27970,-36277 46700,-78817 70050,-118227 8310,-42732 28480,-84814 24900,-128195 -9900,-119537 -71190,-182552 -191400,-208124 -106780,-22728 -215860,31070 -310850,65127 -138160,52094 -64490,247475 73670,195381 v 0 c 34100,-13758 67660,-28977 102300,-41309 23200,-8255 48700,-10001 71040,-20399 14840,-6880 34920,-51935 48360,-19050 6880,16801 -100,36295 -150,54446 -12960,25373 -22220,52993 -38900,76102 -20660,28659 -46420,53419 -72020,77761 -78570,74681 -166550,113191 -274290,82854 -79970,-54867 -102980,-103103 -17300,-172691 129940,-57563 268120,-96642 411580,-78806 146500,18415 172550,-188756 26060,-207179 z" />
    <path
       style="fill:#040000;stroke:#000017;stroke-width:98812.8405846;stroke-linecap:round;stroke-linejoin:bevel;stroke-miterlimit:4;stroke-dasharray:none"
       id="path1987"
       d="m 129180520,67000140 c -157080,-2116 -277040,94240 -328400,240890 -9180,26194 -12400,54092 -18600,81137 1330,27120 -3490,55282 4080,81362 27420,94459 87030,138687 206330,93853 46520,-17489 70480,-70940 98200,-112194 55150,-82076 108770,-229827 144330,-317804 108070,-298884 173920,-610444 182910,-928090 -5030,-115398 9980,-212550 -204080,-153408 -38980,10769 -78950,333711 -82800,361165 -27730,279643 -41760,569505 19070,846436 9180,41778 23680,82198 35520,123299 45620,102504 98530,219397 235890,214754 131650,-4445 213440,-131897 282670,-222925 19050,-29466 38990,-58391 57180,-88400 25240,-41619 56290,-100264 78350,-145195 7730,-15743 14930,-31729 22120,-47710 4290,-9525 22680,-27284 12330,-28771 -67010,-9630 -135410,794 -203110,1323 -9520,106829 -82110,327388 68420,380770 39960,14182 84530,-6720 126790,-10080 84970,-49411 150890,-121944 213570,-196210 35240,-41746 16060,-24950 40410,-44641 -192370,92324 90570,-25876 -132390,1323 -12010,1588 6010,23469 9600,35015 26120,83820 56620,147082 101740,222507 82820,96530 35960,52424 141630,131209 120770,84937 240890,-85867 120120,-170804 v 0 c -60820,-38116 -32610,-15161 -83880,-69776 -35180,-54925 -35200,-48985 -59300,-112101 -33090,-86633 -33870,-182737 -146790,-217300 -30760,-9419 -61790,17939 -92680,26906 -65190,63272 -117440,139110 -186530,198919 65080,29577 37710,5291 72190,75842 2750,5610 -7380,-10821 -7780,-17039 -4900,-74475 19260,-148206 23340,-222012 -65780,-31940 -128310,-71678 -197340,-95824 -7960,-2778 -6480,15611 -9920,23337 -6030,13493 -12040,27027 -18520,40317 -34320,70276 -72250,138914 -116690,203364 -17230,23495 -33810,47487 -51690,70498 -12590,16193 -29100,29475 -39640,47077 -11250,18759 10210,49996 5420,49909 -37930,-794 -44820,-93107 -65230,-93269 -9900,-32567 -22230,-64497 -29690,-97705 -57680,-256249 -43310,-525224 -18360,-784143 6420,-46543 11850,-93236 19260,-139631 2670,-16642 28300,-104685 13150,-112004 -54050,-26114 -110540,-47834 -168420,-63690 -23660,-6482 95960,132765 7330,73184 -7360,292904 -69540,580003 -167930,855834 -20910,52353 -40060,105437 -62710,157062 -17410,39659 -39710,77020 -57320,116586 -6190,13917 -23390,31583 -13950,43566 34910,44371 117720,36547 86420,73777 -4020,4789 -4580,-11615 -6880,-17410 11320,-81401 36420,-152074 129180,-154572 147360,9234 160430,-199165 13070,-208402 z" />
    <path
       style="fill:#040000;stroke:#000017;stroke-width:98812.8405846;stroke-linecap:round;stroke-linejoin:bevel;stroke-miterlimit:4;stroke-dasharray:none"
       id="path1989"
       d="m 130610230,67225010 c 174250,-298924 294280,-624534 400940,-952416 43300,-175453 148030,-429024 40700,-602578 -16510,-26678 -41890,-46701 -62830,-70053 -27500,-13468 -52720,-33282 -82500,-40413 -260310,-62336 -342660,281369 -394460,458930 -92170,403247 -51700,815801 10260,1219841 36520,148918 44520,316627 124440,451580 82880,122195 255690,5001 172810,-117210 v 0 c 2380,11139 4260,18917 -8070,-16299 -5390,-15398 -10290,-30990 -14870,-46662 -29040,-99496 -50170,-201096 -67910,-303162 -57750,-374152 -97960,-756399 -15930,-1130530 41950,-149336 26250,-112871 80470,-241297 2390,-5663 26220,-72848 37810,-80495 3990,-2645 9360,-2116 14050,-2989 111280,38393 -18160,389596 -32550,456816 -101420,312600 -215340,623152 -380770,908447 -76710,126158 101710,234648 178420,108487 z" />
    <path
       style="fill:#040000;stroke:#000017;stroke-width:98812.8405846;stroke-linecap:round;stroke-linejoin:bevel;stroke-miterlimit:4;stroke-dasharray:none"
       id="path1991"
       d="m 131556140,67063042 c -24930,-3175 -49660,-10662 -74750,-9525 -141420,6562 -277490,89273 -357330,204798 -19310,27959 -31430,60264 -47140,90395 -5400,32025 -20140,63836 -16220,96076 12110,99613 66790,164298 183690,152757 110660,-10927 226650,-175945 289810,-255633 32190,-40378 60220,-83925 92020,-124602 4200,-5398 20400,-12991 13890,-15108 -61880,-20267 -125900,-50091 -190590,-42752 -22410,2646 -11250,43768 -14790,66048 -4660,29337 -6540,59053 -9790,88578 5660,107510 25480,218286 103610,299836 28600,29842 66260,49435 99380,74155 123080,81571 238440,-92480 115360,-174051 v 0 c -14920,-7117 -31720,-11218 -44750,-21378 -48320,-37698 -58130,-101061 -65880,-157287 1850,-21431 2380,-43029 5850,-64273 3650,-22966 29150,-49464 15210,-68096 -125450,-167904 -131700,-190833 -195380,-109876 -30610,38920 -57360,80788 -88160,119563 -20110,25664 -39460,51911 -60290,76986 -15820,19050 -77940,73784 -69770,99131 6300,19526 30080,29834 37100,49109 1330,3916 -19260,68168 -12350,1588 6530,-15875 10920,-32798 19580,-47612 38890,-66551 129630,-134220 209520,-129606 140970,43931 203100,-155422 62130,-199353 z" />
    <path
       style="fill:#040000;stroke:#000017;stroke-width:98812.8405846;stroke-linecap:round;stroke-linejoin:bevel;stroke-miterlimit:4;stroke-dasharray:none"
       id="path1993"
       d="m 132356480,66683672 c -154040,142383 -192170,352110 -223230,550249 -11380,98501 -25590,197530 -19930,296960 530,11086 -1060,22913 3180,33147 11110,26247 28230,49530 42350,74295 52660,-5159 107600,794 157960,-15504 270,-93 100840,-102897 106690,-108437 63030,-59735 127470,-103225 203400,-144571 103610,-47202 52270,-25982 153840,-64196 138030,-52430 63890,-247634 -74140,-195204 v 0 c -119650,45802 -59110,20346 -181370,77012 -31950,18124 -65040,34401 -95870,54398 -79230,51403 -147050,117039 -212310,184605 -11060,11457 -45680,25824 -32600,34894 31570,21907 75540,14075 113320,21087 8810,20029 15400,41214 26430,60111 790,1322 -3490,-14658 -3490,-52142 -20,-75277 10500,-149915 18890,-224565 22510,-148029 42590,-313865 153610,-424341 111590,-96687 -25130,-254500 -136740,-157814 z" />
  </g>
  <circle
     id="path2043"
     style="fill:#040000;stroke:#000017;stroke-width:264583"
     cx="26473502"
     cy="797987.5"
     r="0" />
  <path
     style="fill:#040000;stroke:#000017;stroke-width:0;stroke-linecap:round;stroke-linejoin:bevel"
     id="path2068"
     d="m 10482080,9100458.5 c -160450,-21854 -320090,-46117 -475550,-92069 -153150,-47120 -293610,-123997 -424800,-214736 -90740,-78362 -171370,-169127 -247620,-261639 -42730,-50014 -72490,-108661 -99290,-168243 -16040,-25400 -53120,-136633 -81160,-145545 -39510,-12567 -74180,15611 -104410,32668 -2700,-3175 -7200,530 -4500,3837 v 0 c -12460,12806 -60490,59198 -68120,78335 -4790,12012 56530,102844 58400,122044 35610,76859 74980,152358 130380,217157 89910,107318 183500,213643 292960,301408 151000,102630 311630,189820 487800,241422 166930,48234 338160,76840 511360,91453 145730,17357 170270,-188740 24530,-206092 z"
     inkscape:export-xdpi="300"
     inkscape:export-ydpi="300" />
  <path
     style="fill:#040000;stroke:#000017;stroke-width:0;stroke-linecap:round;stroke-linejoin:bevel"
     id="path2072"
     d="m 24740900,1362584.5 c 152100,-39587 305040,-75049 460300,-99627 128700,-24659 254660,-17885 381720,9208 125350,23310 234180,81052 339060,150611 64090,43069 117400,99232 176420,148511 4550,7091 25140,17145 27950,27787 520,1852 -3050,-3175 -5060,-3440 -2380,-265 160,4577 240,6853 13810,29114 15500,56829 48450,56978 53940,109037 208140,32744 154200,-76293 v 0 c 21590,-17515 8700,-39232 -9470,-50022 -19690,-47019 -47500,-88845 -91550,-116396 -65730,-50972 -125700,-109159 -195650,-154675 -125130,-81486 -257830,-146539 -405690,-175244 -150050,-31086 -299150,-37817 -450680,-8520 -163210,27266 -324550,64609 -483130,112062 -121750,37401 -68860,209587 52900,172185 z"
     inkscape:export-xdpi="300"
     inkscape:export-ydpi="300" />
  <path
     style="fill:#040000;stroke:#000017;stroke-width:0;stroke-linecap:round;stroke-linejoin:bevel"
     id="path2080"
     d="m 7219160,1205247.5 c 174990,8096 350240,8175 525370,13361 189120,8361 378460,3784 567630,8414 135940,4392 266750,30863 391680,83534 121110,51321 222750,131469 319560,218760 101660,97883 211600,186399 313320,284181 79500,84863 159330,169431 237380,255638 88940,100113 178250,199887 267040,300138 89300,107998 172520,220739 260550,329753 70430,85307 128710,178869 182530,275196 54750,97554 116920,190605 168480,289930 46950,89170 84350,182639 122990,275558 43120,99232 80040,200861 108530,305218 24290,132893 48610,265565 81610,396648 37680,138636 64750,279731 93710,420335 28440,129630 48250,260866 71290,391502 26270,134530 34760,271473 45250,407879 11380,142245 21040,284583 33810,426709 10110,88276 9740,176951 4100,265467 -5900,119708 -14340,238681 -38130,356270 -29210,140054 -81470,273703 -141980,402865 -43600,96607 -101080,181840 -177720,254582 -84560,71890 -175890,134840 -257400,210405 -94070,111154 -173620,233251 -265570,346249 -107880,135589 -213740,272595 -333970,397560 -83210,95528 -184020,158457 -300220,204431 -126510,44892 -257370,75385 -388180,104582 -100670,20690 -203390,29622 -305800,36525 -65650,2117 -130980,6853 -196160,14923 -53730,10610 -106800,24024 -160460,35203 -103090,20240 -207070,35382 -310300,55128 -123350,22278 -246110,48009 -370110,66440 -115010,13943 -230920,16404 -346620,17833 -105490,793 -210980,529 -316480,529 -106760,254 -212270,-18151 -316590,-39029 -131440,-32792 -265120,-54234 -398770,-75562 -157250,-23072 -309550,-67083 -460660,-114975 -167090,-56621 -332940,-117438 -494100,-189325 -129320,-56677 -250600,-124656 -362060,-211024 -112510,-80470 -198380,-161142 -262730,-284416 -56490,-132414 -88950,-272757 -143620,-405890 -58610,-132209 -164580,-226462 -279380,-309443 -118280,-79026 -245090,-144050 -371170,-209487 -63220,-33202 -119560,-76546 -176540,-119065 -79360,-57197 -136100,-136948 -193330,-214820 -79290,-104654 -136390,-222126 -186840,-342620 -58800,-146867 -92660,-300540 -111600,-457076 -15380,-162975 -2390,-326556 5450,-489542 7770,-162150 10610,-324467 12110,-486778 -1580,-163132 7390,-325972 23420,-488252 20800,-206790 48270,-412744 78570,-618331 33580,-197199 62540,-395168 99770,-591727 34690,-170217 93550,-334314 162130,-493514 98400,-202536 246870,-373867 393310,-542666 171050,-197898 365750,-372925 568400,-537541 167120,-134890 349660,-248563 541010,-345411 165810,-77782 344170,-120888 525780,-138207 157900,-15875 316130,-8176 474090,793 120550,11245 240740,20267 361860,20188 95520,-3889 190890,-1852 286220,4710 100800,-1588 191620,34430 284580,67886 78520,29539 155870,63379 230260,102233 37090,19738 72170,42677 101550,72848 17490,26167 -20130,-32647 -13020,-65151 1590,85505 -17880,60989 16360,92458 61220,89546 187850,2964 126630,-86577 v 0 c 28040,14314 8710,1059 3940,69988 20110,-44823 18020,-97298 -24130,-130215 -42700,-36497 -88380,-68982 -138810,-94123 -80910,-41203 -164290,-78163 -249370,-109873 -106570,-38354 -212080,-78068 -327380,-77261 -99010,-6615 -198050,-9261 -297260,-5477 -118060,529 -235130,-9022 -352630,-19950 -165980,-8996 -332240,-16960 -498120,-145 -201260,19685 -398890,67204 -582550,153863 -201270,102264 -393760,221406 -569530,363688 -209720,170519 -411030,351930 -588050,556848 -157430,181062 -315130,366082 -419570,584115 -72870,169950 -135650,344932 -172270,526616 -38070,198718 -67100,398986 -101100,598421 -30310,208190 -58130,416687 -79510,626007 -16010,166960 -25900,334397 -24150,502214 -1590,160263 -4260,320535 -11960,480645 -8230,171860 -21540,344352 -4500,516154 20340,171273 56760,339659 121480,500187 55220,132331 117320,261683 204370,376571 66500,90969 134050,182650 225870,250044 63960,48284 128080,96309 199350,133649 119070,61796 238870,123063 350960,197067 90100,64323 175940,136033 223390,238723 57300,137922 87740,285017 150680,420815 79870,146047 172320,240651 306920,336933 122000,94187 254070,170032 395630,231561 166860,74128 338290,137237 510910,196601 158920,50769 319380,96272 484740,121116 131520,20981 263080,42098 392420,74422 114930,22886 231250,42955 348840,42246 106380,185 212750,529 319120,-529 123160,-1852 246570,-4974 368870,-21114 126040,-19314 250940,-45143 376350,-68133 104620,-20029 209640,-37655 314150,-58020 48590,-11219 97180,-22146 145480,-34520 62350,-7726 124670,-13600 187570,-14923 110390,-7990 221090,-17515 329440,-41029 138890,-31498 277700,-64849 411930,-113040 136450,-55261 256770,-130268 355150,-242062 122320,-128845 231790,-268275 341610,-407787 87110,-107791 165260,-221914 251020,-330631 81560,-77285 176400,-137970 259860,-213045 87350,-87871 155710,-188093 203890,-302864 64840,-140319 119240,-285668 150260,-437528 23810,-124156 34210,-249420 39790,-375655 5550,-95811 6110,-191744 -4820,-287274 -12720,-141505 -22300,-283218 -33650,-424839 -10850,-141174 -19690,-282959 -47680,-422058 -23680,-131842 -43220,-264446 -72220,-395290 -29410,-142672 -57050,-285779 -95530,-426397 -33430,-132260 -56370,-266404 -84160,-399839 -31410,-109529 -70780,-216347 -116540,-320736 -40580,-96493 -80950,-193114 -129860,-285792 -53140,-99949 -115730,-194149 -171380,-292685 -57980,-102743 -121260,-201993 -196640,-293079 -89300,-110569 -173950,-224800 -265590,-333475 -89160,-100664 -180120,-199713 -268920,-300694 -80330,-88151 -161920,-175165 -244660,-261051 -102890,-98780 -214040,-188246 -317540,-286406 -108260,-96216 -222330,-183812 -356890,-240567 -140050,-57317 -286100,-87477 -437920,-91239 -189050,-4101 -378230,203 -567250,-6774 -174200,-4101 -348420,-2751 -522580,-7673 -84020,-4312 -90100,114515 -6090,118814 z"
     inkscape:export-xdpi="300"
     inkscape:export-ydpi="300" />
  <path
     style="fill:#040000;stroke:#000017;stroke-width:0;stroke-linecap:round;stroke-linejoin:bevel"
     id="path2084"
     d="m 24372120,4418339.5 c 54970,-190736 135400,-373166 215580,-554379 112410,-223168 222170,-447442 321960,-676558 99920,-224949 171980,-460518 260300,-689875 56870,-148672 145710,-280212 246550,-402092 95080,-123910 220120,-212159 349850,-295530 167010,-97181 310830,-226769 465740,-340886 115980,-84209 244280,-148114 374960,-205830 199750,-78975 412400,-120319 623840,-153760 285020,-28974 571860,-24686 857950,-25744 216020,77 432010,-3492 647820,7303 200190,14287 396460,52268 585670,118657 212240,85926 398240,216662 577520,356534 132270,114276 270780,221150 403540,334759 101160,87723 194850,182991 285910,280969 120120,123447 229800,254942 323170,399603 133310,215537 243840,443952 351700,672949 116330,269499 200030,550971 293770,828646 73770,219297 155270,436150 222080,657728 32760,112299 65070,224954 85640,340217 9400,57055 16120,114475 18260,172262 1320,56531 -15110,111093 -30160,164965 -43180,143732 -83090,288396 -122670,433150 -34450,130434 -73000,259717 -113400,388416 -30390,104669 -69130,206348 -116900,304226 -43800,89842 -94470,176046 -150150,258977 -85040,123306 -172700,244856 -256200,369202 -84280,139755 -171390,277598 -261970,413348 -98300,156167 -208950,302845 -334640,437816 -97620,104969 -207810,196467 -322560,281874 -126320,87326 -256290,169352 -389720,245340 -122180,65562 -242590,134329 -364780,199869 -93330,50427 -197500,75290 -300690,96462 -112550,20320 -227410,21590 -341430,23389 -125790,-1323 -251280,8308 -376970,10716 -128440,161 -256950,3598 -385110,12250 -89720,5530 -178930,15822 -267870,28610 -66590,13520 -133720,19341 -201520,20029 -100640,-7065 -199840,-27149 -298110,-49165 -113950,-26940 -223840,-66996 -332050,-111160 -125660,-54155 -258430,-88744 -388730,-129548 -114740,-36684 -228130,-76869 -338490,-125156 -118120,-50072 -235570,-101065 -352230,-154484 -178520,-82593 -358920,-160690 -532700,-253014 -182310,-101843 -281240,-210875 -384450,-389477 -102770,-208735 -197030,-421441 -301000,-629616 -106510,-203647 -213710,-406548 -333390,-602805 -123250,-192998 -248540,-384575 -369650,-578930 -62510,-89908 -114970,-182488 -142980,-288438 -27830,-127368 -32030,-258405 -29230,-388281 3490,-128995 26090,-255344 73630,-375193 40990,-112553 93290,-151508 193780,-207123 99740,-58682 206400,-104273 306700,-161772 58010,-35991 105260,-79428 137950,-139314 10260,-34480 67560,-99509 42500,-138152 -15430,-23786 -42170,-37928 -63250,-56890 -6990,-14579 -13950,-29181 -20930,-43771 -1060,-2804 -5000,-1322 -3940,1588 v 0 c 4040,14579 8120,29165 12170,43746 -91890,26273 -79060,29501 -117330,114374 -15160,31869 -43710,52430 -72190,72610 -98370,58489 -205530,101052 -303740,160083 -137310,76634 -214660,140632 -274640,290129 -55210,139370 -83620,285547 -87780,435695 -3600,146804 1850,294963 34490,438698 33560,122589 89520,232677 162550,336973 120800,193876 245770,385000 368230,577829 117020,191603 221300,389998 325280,588920 103880,212849 199790,429437 305460,641398 124430,212024 239590,338166 455830,459726 177030,93851 360210,174371 542050,258321 117620,53856 235980,105484 355060,155975 116590,50924 236270,93596 357490,132241 125430,38854 253010,72520 373970,124251 117550,47884 236920,91421 360740,120415 112200,25796 225830,48429 341050,54350 75880,-1058 151200,-6958 225740,-21907 84370,-12171 168980,-21987 254100,-27152 125180,-8625 250740,-11589 376190,-11853 125450,-2646 250710,-12012 376260,-10927 125500,-2117 251730,-4049 375480,-27525 120810,-24712 241980,-55626 351110,-114760 123260,-66657 245090,-135901 368640,-202012 139970,-79846 276580,-165653 408670,-257993 123260,-92456 242130,-190847 347050,-304152 132090,-142362 249320,-296293 352640,-460901 90770,-135433 178220,-272862 262040,-412716 83760,-124322 171730,-245795 256580,-369387 60190,-90073 115170,-183410 162710,-280845 51610,-106185 93400,-216509 126850,-329795 41090,-130958 79710,-262679 115000,-395325 39160,-144663 78930,-289158 121910,-432744 20030,-73597 37670,-148656 32420,-225574 -6000,-64566 -14390,-128963 -25850,-192793 -24180,-120957 -58460,-239451 -93550,-357632 -69050,-222843 -150620,-441524 -226120,-662216 -97820,-282749 -182590,-570510 -304200,-844478 -111450,-235575 -226480,-470165 -364660,-691491 -100010,-151265 -214770,-290730 -342250,-419931 -95910,-102045 -193960,-201933 -300480,-293106 -136120,-113056 -275460,-222154 -409920,-337264 -193480,-148640 -395030,-286538 -623460,-376764 -203260,-69559 -413530,-111143 -628190,-125423 -218550,-10345 -437310,-5345 -656040,-4392 -293370,2381 -587610,794 -879630,32888 -223280,36277 -447370,81420 -657080,168743 -139530,62248 -276120,131627 -399920,221999 -152590,112630 -293840,240688 -456920,338812 -140900,91109 -276420,188616 -379950,323130 -109210,133279 -206030,276596 -267470,438782 -87570,227793 -160200,461233 -256980,685573 -98010,229473 -205830,454276 -313880,679159 -82000,187976 -164550,377621 -213750,577326 -18440,77592 91300,103656 109730,26062 z"
     inkscape:export-xdpi="300"
     inkscape:export-ydpi="300" />
  <path
     style="fill:none;stroke:#000000;stroke-width:264583px;stroke-linecap:butt;stroke-linejoin:miter;stroke-opacity:1"
     d="M 1.4901161e-8,132291.5 H 532180"
     id="path2088"
     inkscape:export-xdpi="300"
     inkscape:export-ydpi="300" />
</svg>
